<svg
    width="128"
    height="128"
    viewBox="0 0 128 128"
    fill="none"
    xmlns="http://www.w3.org/2000/svg"
>
    <g clip-path="url(#clip0_1050_2)">
        <g filter="url(#filter0_d_1050_2)">
            <path
                d="M31.1025 88.702V32.9266C31.1025 30.9969 32.6426 29.4012 35.7227 28.1395C38.8398 26.8407 42.4951 26.1913 46.6885 26.1913C49.0635 26.1913 51.29 26.4882 53.3682 27.0819C55.4834 27.6385 57.0977 28.3622 58.2109 29.2528C59.7324 31.1825 61.124 33.1493 62.3857 35.1532C63.6475 37.1571 66.4863 41.8329 70.9023 49.1805C71.3105 49.1805 71.6816 49.0507 72.0156 48.7909C72.3496 48.5311 72.5166 48.1415 72.5166 47.6219C72.5166 47.0653 72.0527 46.0077 71.125 44.4491L65.1133 34.0956V31.0341C67.0059 29.4755 69.3066 28.2694 72.0156 27.4159C74.7246 26.5624 77.5264 26.1356 80.4209 26.1356C85.1338 26.1356 88.9375 26.9891 91.832 28.6962C95.209 30.7372 96.8975 33.9286 96.8975 38.2704V90.9842C96.8975 94.1757 95.376 96.495 92.333 97.9423C89.7353 99.2411 86.2656 99.8905 81.9238 99.8905C79.5117 99.8905 77.1553 99.6307 74.8545 99.1112C72.5908 98.5917 70.8096 97.9237 69.5107 97.1073C66.876 93.7303 64.2598 89.9452 61.6621 85.7518L55.9844 76.2889C54.9082 76.4374 54.3701 77.0126 54.3701 78.0145C54.3701 78.6454 54.9082 79.8514 55.9844 81.6327L62.9424 92.8768V95.827C58.6377 98.6102 53.7764 100.002 48.3584 100.002C42.9775 100.002 38.7471 99.0184 35.667 97.0516C32.624 95.0848 31.1025 92.3016 31.1025 88.702Z"
                fill="#B62F5A"
            />
        </g>
        <rect
            x="4"
            y="4"
            width="120"
            height="120"
            stroke="#B62F5A"
            stroke-width="8"
        />
    </g>
    <defs>
        <filter
            id="filter0_d_1050_2"
            x="25.1025"
            y="20.1356"
            width="77.7949"
            height="85.8662"
            filterUnits="userSpaceOnUse"
            color-interpolation-filters="sRGB"
        >
            <feFlood flood-opacity="0" result="BackgroundImageFix" />
            <feColorMatrix
                in="SourceAlpha"
                type="matrix"
                values="0 0 0 0 0 0 0 0 0 0 0 0 0 0 0 0 0 0 127 0"
                result="hardAlpha"
            />
            <feOffset />
            <feGaussianBlur stdDeviation="3" />
            <feComposite in2="hardAlpha" operator="out" />
            <feColorMatrix
                type="matrix"
                values="0 0 0 0 0 0 0 0 0 0 0 0 0 0 0 0 0 0 0.25 0"
            />
            <feBlend
                mode="normal"
                in2="BackgroundImageFix"
                result="effect1_dropShadow_1050_2"
            />
            <feBlend
                mode="normal"
                in="SourceGraphic"
                in2="effect1_dropShadow_1050_2"
                result="shape"
            />
        </filter>
        <clipPath id="clip0_1050_2">
            <rect width="128" height="128" fill="white" />
        </clipPath>
    </defs>
</svg>
