<svg width="509" height="109" viewBox="0 0 509 109" fill="none" xmlns="http://www.w3.org/2000/svg">
<g clip-path="url(#clip0_1068_2)">
<g filter="url(#filter0_d_1068_2)">
<rect x="5" y="3" width="499" height="102" rx="8" fill="white"/>
</g>
<path d="M43.9931 51.6719C44.1181 51.7656 44.4775 51.8125 45.0713 51.8125C45.665 51.8125 46.1181 51.5781 46.4306 51.1094C46.7431 50.6406 46.8994 49.875 46.8994 48.8125V47.125C46.8994 46 46.7588 45.2031 46.4775 44.7344C46.2275 44.2344 45.79 43.9844 45.165 43.9844C44.5713 43.9844 44.165 44.0469 43.9463 44.1719C43.9775 44.3281 43.9931 44.5938 43.9931 44.9688V51.6719ZM68.1806 62.3594L76.29 70.6562C75.7275 75.5312 74.1806 79.2812 71.6494 81.9062C69.1494 84.5312 65.6806 85.8438 61.2431 85.8438C57.8994 85.8438 54.9931 85.0469 52.5244 83.4531C49.3681 81.4531 47.0088 78.2656 45.4463 73.8906L43.7588 69.2969C42.4463 69.2656 40.79 69.0938 38.79 68.7812C38.54 69.0312 38.415 69.375 38.415 69.8125C38.415 70.6562 39.6806 71.1562 42.2119 71.3125L44.8838 78.0625V82.0469C41.29 84.5781 36.6806 85.8438 31.0556 85.8438C27.0244 85.8438 23.8056 85.0156 21.3994 83.3594C18.9931 81.7031 17.79 79.2969 17.79 76.1406V31.6094C17.79 30.2344 19.0556 28.9062 21.5869 27.625C24.1181 26.3125 27.4306 25.2656 31.5244 24.4844C35.6181 23.6719 39.7119 23.2656 43.8056 23.2656C53.1806 23.2656 60.5088 25.1875 65.79 29.0312C71.3525 33.0625 74.1338 38.7344 74.1338 46.0469C74.1338 50.2344 72.9463 53.8281 70.5713 56.8281C68.2275 59.7969 65.2588 61.8594 61.665 63.0156C61.665 64.0156 62.2588 64.5156 63.4463 64.5156C64.665 64.5156 66.2431 63.7969 68.1806 62.3594ZM131.889 61.7969C131.889 64.0469 132.139 65.8594 132.639 67.2344C133.139 68.6094 134.014 69.6875 135.264 70.4688C135.296 70.625 135.311 70.9219 135.311 71.3594V72.2031C135.311 76.6406 133.968 80.0938 131.28 82.5625C128.905 84.75 125.968 85.8438 122.468 85.8438C120.093 85.8438 117.921 85.2812 115.952 84.1562C113.983 83.0312 112.577 81.4062 111.733 79.2812C110.671 79.2812 110.139 79.7969 110.139 80.8281C110.139 81.7031 110.686 82.6875 111.78 83.7812C109.749 85.1562 106.686 85.8438 102.593 85.8438C96.8113 85.8438 92.1863 84.2812 88.7175 81.1562C85.28 78 83.5613 73.6094 83.5613 67.9844C83.5613 62.3281 85.3894 57.9531 89.0456 54.8594C92.3894 52.0781 96.7175 50.6875 102.03 50.6875C103.843 50.6875 105.593 50.8125 107.28 51.0625C108.405 51.2812 109.014 51.4062 109.108 51.4375C109.202 51.125 109.249 50.8594 109.249 50.6406C109.249 49.8281 108.561 49.2812 107.186 49C105.811 48.7188 104.014 48.5781 101.796 48.5781C97.0769 48.5781 93.0456 49.5312 89.7019 51.4375C88.1706 48.8438 87.405 45.5625 87.405 41.5938C87.405 39.3438 87.6863 37.6719 88.2488 36.5781C90.4988 35.5469 93.3581 34.6406 96.8269 33.8594C100.296 33.0469 103.952 32.6406 107.796 32.6406C115.733 32.6406 121.733 34.375 125.796 37.8438C129.858 41.3125 131.889 46.2344 131.889 52.6094V61.7969ZM107.561 64.0938C106.249 64.0938 105.593 64.6875 105.593 65.875C105.593 67 106.358 67.5625 107.889 67.5625C108.952 67.5625 109.733 67.3125 110.233 66.8125C110.733 66.2812 110.983 65.375 110.983 64.0938C110.983 64.0938 109.843 64.0938 107.561 64.0938ZM167.333 42.8125V61.375C167.333 66.0312 168.458 69.0625 170.708 70.4688C170.739 70.625 170.754 70.9219 170.754 71.3594V72.2031C170.754 76.7969 169.504 80.25 167.004 82.5625C164.692 84.75 161.598 85.8438 157.723 85.8438C153.879 85.8438 150.708 84.75 148.208 82.5625C145.051 79.7812 143.473 75.7188 143.473 70.375V39.9062C144.036 39.5 144.645 39.1719 145.301 38.9219C145.958 38.6719 146.645 38.3594 147.364 37.9844C146.02 37.2969 144.801 36.1094 143.708 34.4219C142.614 32.7031 142.067 30.7031 142.067 28.4219C142.067 24.4844 143.364 21.2656 145.958 18.7656C148.551 16.2656 151.723 15.0156 155.473 15.0156C159.254 15.0156 162.411 16.2969 164.942 18.8594C167.504 21.3906 168.786 24.5781 168.786 28.4219C168.786 31.5156 167.817 34.2344 165.879 36.5781C163.942 38.8906 161.583 40.3438 158.801 40.9375C158.801 42.125 159.254 42.7188 160.161 42.7188C161.754 42.7188 163.379 42.0938 165.036 40.8438C166.286 41.8125 167.051 42.4688 167.333 42.8125ZM228.698 61.7969C228.698 64.0469 228.948 65.8594 229.448 67.2344C229.948 68.6094 230.823 69.6875 232.073 70.4688C232.104 70.625 232.119 70.9219 232.119 71.3594V72.2031C232.119 76.5156 230.869 79.875 228.369 82.2812C225.901 84.6562 222.698 85.8438 218.76 85.8438C214.854 85.8438 211.682 84.7344 209.244 82.5156C206.401 79.9844 204.979 76.1406 204.979 70.9844C204.979 68.7969 205.073 66.875 205.26 65.2188C205.479 63.5312 205.619 62.3281 205.682 61.6094C205.776 60.8906 205.869 60.2188 205.963 59.5938C206.057 58.9688 206.104 58.0469 206.104 56.8281C206.104 55.6094 205.932 54.7344 205.588 54.2031C205.276 53.6719 204.823 53.4062 204.229 53.4062C203.666 53.4062 203.166 53.5312 202.729 53.7812L203.338 61.4219C202.776 64.5781 202.494 67.9219 202.494 71.4531C202.494 74.9844 203.291 78.2031 204.885 81.1094C201.823 84.2656 197.526 85.8438 191.994 85.8438C188.838 85.8438 186.104 85.0156 183.791 83.3594C181.104 81.4844 179.76 79 179.76 75.9062V53.2188C177.916 50.625 176.994 47.4375 176.994 43.6562C176.994 39.8438 177.916 36.5469 179.76 33.7656H188.104C190.323 33.7656 192.213 34.5938 193.776 36.25C192.401 37.5312 191.713 38.5938 191.713 39.4375C191.713 40.4062 192.26 40.8906 193.354 40.8906C194.729 38.5156 196.823 36.5469 199.635 34.9844C202.479 33.4219 205.698 32.6406 209.291 32.6406C214.698 32.6406 219.088 33.9688 222.463 36.625C226.713 39.9688 228.838 45.1562 228.838 52.1875L228.698 61.7969ZM263.062 65.8281C263.375 66.1406 263.75 66.2969 264.188 66.2969C264.875 66.2969 265.344 65.8125 265.594 64.8438C265.844 63.8438 265.969 61.8438 265.969 58.8438V54.0625C265.969 53.2188 265.859 52.625 265.641 52.2812C265.422 51.9375 265.062 51.7656 264.562 51.7656C264.062 51.7656 263.703 51.875 263.484 52.0938V58.375C263.484 60.25 263.344 62.7344 263.062 65.8281ZM264.938 27.4375V31.6094C262.312 31.7656 259.906 32.1719 257.719 32.8281C255.531 33.4531 254.438 34.1875 254.438 35.0312C254.438 35.5312 254.688 35.9375 255.188 36.25C258.625 34.5625 262.266 33.7188 266.109 33.7188C272.984 33.7188 278.609 36.0938 282.984 40.8438C287.391 45.5625 289.594 51.7188 289.594 59.3125C289.594 68.5 286.938 75.4219 281.625 80.0781C276.781 84.3281 270.188 86.4531 261.844 86.4531C253.531 86.4531 247.406 84.8438 243.469 81.625C241.312 79.8438 240.234 77.5312 240.234 74.6875V21.2031C241.734 20.3281 243.531 19.6094 245.625 19.0469C247.75 18.4844 249.891 18.2031 252.047 18.2031C255.641 18.2031 258.609 18.9062 260.953 20.3125C263.609 21.9687 264.938 24.3438 264.938 27.4375ZM403.142 61.7969C403.142 64.0469 403.392 65.8594 403.892 67.2344C404.392 68.6094 405.267 69.6875 406.517 70.4688C406.548 70.625 406.564 70.9219 406.564 71.3594V72.2031C406.564 76.6406 405.22 80.0938 402.533 82.5625C400.158 84.75 397.22 85.8438 393.72 85.8438C391.345 85.8438 389.173 85.2812 387.204 84.1562C385.236 83.0312 383.829 81.4062 382.986 79.2812C381.923 79.2812 381.392 79.7969 381.392 80.8281C381.392 81.7031 381.939 82.6875 383.033 83.7812C381.001 85.1562 377.939 85.8438 373.845 85.8438C368.064 85.8438 363.439 84.2812 359.97 81.1562C356.533 78 354.814 73.6094 354.814 67.9844C354.814 62.3281 356.642 57.9531 360.298 54.8594C363.642 52.0781 367.97 50.6875 373.283 50.6875C375.095 50.6875 376.845 50.8125 378.533 51.0625C379.658 51.2812 380.267 51.4062 380.361 51.4375C380.454 51.125 380.501 50.8594 380.501 50.6406C380.501 49.8281 379.814 49.2812 378.439 49C377.064 48.7188 375.267 48.5781 373.048 48.5781C368.329 48.5781 364.298 49.5312 360.954 51.4375C359.423 48.8438 358.658 45.5625 358.658 41.5938C358.658 39.3438 358.939 37.6719 359.501 36.5781C361.751 35.5469 364.611 34.6406 368.079 33.8594C371.548 33.0469 375.204 32.6406 379.048 32.6406C386.986 32.6406 392.986 34.375 397.048 37.8438C401.111 41.3125 403.142 46.2344 403.142 52.6094V61.7969ZM378.814 64.0938C377.501 64.0938 376.845 64.6875 376.845 65.875C376.845 67 377.611 67.5625 379.142 67.5625C380.204 67.5625 380.986 67.3125 381.486 66.8125C381.986 66.2812 382.236 65.375 382.236 64.0938C382.236 64.0938 381.095 64.0938 378.814 64.0938ZM490.663 61.7969C490.663 64.0781 490.913 65.9375 491.413 67.375C491.913 68.8125 492.788 69.9219 494.038 70.7031C494.069 70.8594 494.085 71.125 494.085 71.5V72.2031C494.085 76.4844 492.835 79.8281 490.335 82.2344C487.835 84.6406 484.601 85.8438 480.632 85.8438C476.694 85.8438 473.522 84.7656 471.116 82.6094C468.272 80.1094 466.851 76.2812 466.851 71.125V56.3125C466.851 54.2188 466.163 53.1719 464.788 53.1719C464.257 53.1719 463.835 53.2969 463.522 53.5469L464.366 60.5312V71.125C464.366 75.375 465.069 78.5938 466.476 80.7812C464.976 82.375 463.101 83.625 460.851 84.5312C458.632 85.4062 456.366 85.8438 454.054 85.8438C450.304 85.8438 447.397 84.9375 445.335 83.125C442.835 80.9375 441.585 77.4844 441.585 72.7656V56.3125C441.585 54.2188 440.897 53.1719 439.522 53.1719C438.991 53.1719 438.569 53.2969 438.257 53.5469L439.101 60.5312V72.9531C439.101 76.4531 439.569 79.1562 440.507 81.0625C437.444 84.2188 433.147 85.7969 427.616 85.7969C424.335 85.7969 421.569 84.9688 419.319 83.3125C416.726 81.4062 415.429 78.8438 415.429 75.625V53.2188C413.585 50.625 412.663 47.4375 412.663 43.6562C412.663 39.8438 413.585 36.5469 415.429 33.7656H426.726C428.944 33.7656 430.835 34.5938 432.397 36.25C431.022 37.5312 430.335 38.5938 430.335 39.4375C430.335 40.4062 430.882 40.8906 431.976 40.8906C433.351 38.5156 435.241 36.625 437.647 35.2188C440.46 33.625 443.757 32.8281 447.538 32.8281C450.413 32.8281 452.929 33.4375 455.085 34.6562C457.272 35.875 458.897 37.2812 459.96 38.875C461.429 36.875 463.335 35.375 465.679 34.375C468.054 33.3438 470.522 32.8281 473.085 32.8281C478.741 32.8281 483.132 34.5781 486.257 38.0781C489.319 41.5781 490.851 46.375 490.851 52.4688L490.663 61.7969Z" fill="#E03F72"/>
<path d="M320.922 86.4531C329.578 86.4531 336.406 84.0469 341.406 79.2344C346.531 74.3906 349.094 67.7656 349.094 59.3594C349.094 50.9219 346.453 44.2344 341.172 39.2969C336.297 34.7031 330.125 32.4062 322.656 32.4062C315.188 32.4062 309.203 34.4688 304.703 38.5938C300.172 42.6875 297.906 47.7344 297.906 53.7344C297.906 59.0781 299.766 63.1094 303.484 65.8281C306.922 68.3906 311.609 69.6719 317.547 69.6719C321.984 69.6719 325.734 68.75 328.797 66.9062C329.047 67.0938 329.172 67.4375 329.172 67.9375C329.172 68.875 327.938 69.7344 325.469 70.5156C323 71.3594 320.203 71.7812 317.078 71.7812C313.922 71.7812 311.062 71.3906 308.5 70.6094C305.906 69.7969 303.828 68.8438 302.266 67.75C301.516 68.4062 300.922 69.625 300.484 71.4062C300.016 73.1562 299.781 74.7656 299.781 76.2344C299.781 77.6719 299.922 78.9531 300.203 80.0781C302.641 82.1406 305.141 83.6094 307.703 84.4844C311.328 85.7969 315.734 86.4531 320.922 86.4531ZM321.531 54.7188C319.969 54.7188 319.188 54.125 319.188 52.9375C319.188 51.8125 320.016 51.25 321.672 51.25C323.328 51.25 324.281 52.1406 324.531 53.9219C323.656 54.4531 322.656 54.7188 321.531 54.7188Z" fill="#E03F72"/>
<path d="M93.1494 22.3554C93.5173 20.8081 95.4567 20.2884 96.549 21.4445L109.85 35.5231C110.89 36.6239 110.377 38.4365 108.914 38.8284L91.133 43.5928C89.6701 43.9848 88.3193 42.6718 88.6696 41.1984L93.1494 22.3554Z" fill="#E03F72"/>
<path d="M120.486 21.4446C121.579 20.2884 123.518 20.8081 123.886 22.3555L128.366 41.1984C128.716 42.6718 127.365 43.9848 125.902 43.5928L108.121 38.8285C106.658 38.4365 106.145 36.624 107.185 35.5231L120.486 21.4446Z" fill="#E03F72"/>
<path d="M313.427 68.0863C315 68.3179 315.687 70.2046 314.63 71.3935L301.765 85.871C300.759 87.0031 298.908 86.6497 298.39 85.2265L292.094 67.9285C291.576 66.5054 292.767 65.0452 294.265 65.2658L313.427 68.0863Z" fill="#E03F72"/>
</g>
<defs>
<filter id="filter0_d_1068_2" x="1" y="-1" width="507" height="110" filterUnits="userSpaceOnUse" color-interpolation-filters="sRGB">
<feFlood flood-opacity="0" result="BackgroundImageFix"/>
<feColorMatrix in="SourceAlpha" type="matrix" values="0 0 0 0 0 0 0 0 0 0 0 0 0 0 0 0 0 0 127 0" result="hardAlpha"/>
<feOffset/>
<feGaussianBlur stdDeviation="2"/>
<feComposite in2="hardAlpha" operator="out"/>
<feColorMatrix type="matrix" values="0 0 0 0 0 0 0 0 0 0 0 0 0 0 0 0 0 0 0.25 0"/>
<feBlend mode="normal" in2="BackgroundImageFix" result="effect1_dropShadow_1068_2"/>
<feBlend mode="normal" in="SourceGraphic" in2="effect1_dropShadow_1068_2" result="shape"/>
</filter>
<clipPath id="clip0_1068_2">
<rect width="509" height="109" fill="white"/>
</clipPath>
</defs>
</svg>
