<svg
    width="128"
    height="128"
    viewBox="0 0 128 128"
    fill="none"
    xmlns="http://www.w3.org/2000/svg"
>
    <g filter="url(#filter0_i_1023_2)">
        <g clip-path="url(#clip0_1023_2)">
            <rect width="128" height="128" rx="40" fill="#B62F5A" />
            <g filter="url(#filter1_d_1023_2)">
                <path
                    d="M29.7993 85.8387L34.5511 30.2661C34.7155 28.3434 36.3859 26.8847 39.5622 25.89C42.7787 24.8614 46.4761 24.5258 50.6542 24.8831C53.0205 25.0854 55.2137 25.5709 57.2337 26.3395C59.2938 27.0743 60.8406 27.9329 61.8739 28.9151C63.2255 30.9674 64.4445 33.0456 65.5309 35.1497C66.6173 37.2538 69.0475 42.1545 72.8214 49.8516C73.2282 49.8864 73.609 49.7886 73.9639 49.5582C74.3188 49.3279 74.5184 48.9539 74.5626 48.4362C74.61 47.8816 74.238 46.7883 73.4464 45.1564L68.3386 34.3283L68.5994 31.2779C70.6179 29.8862 73.0131 28.8806 75.7849 28.261C78.5568 27.6413 81.3847 27.4548 84.2687 27.7014C88.9645 28.1029 92.6816 29.2774 95.4202 31.2248C98.611 33.5461 100.021 36.8698 99.6515 41.1958L95.1606 93.718C94.8887 96.8978 93.1752 99.0791 90.0199 100.262C87.3211 101.335 83.8086 101.686 79.4826 101.316C77.0793 101.111 74.7535 100.651 72.5054 99.9375C70.2942 99.227 68.5763 98.4097 67.3518 97.4856C65.0143 93.8964 62.7301 89.9022 60.4991 85.5027L55.6482 75.5905C54.5633 75.6467 53.9782 76.174 53.8928 77.1723C53.8391 77.8009 54.2725 79.0484 55.193 80.9149L61.1677 92.7109L60.9164 95.6504C56.3902 98.0567 51.428 99.0291 46.0298 98.5675C40.6685 98.1091 36.5372 96.7689 33.6358 94.5468C30.7715 92.3279 29.4926 89.4252 29.7993 85.8387Z"
                    fill="white"
                />
            </g>
        </g>
        <rect
            x="1"
            y="1"
            width="126"
            height="126"
            rx="39"
            stroke="#202020"
            stroke-width="2"
        />
    </g>
    <defs>
        <filter
            id="filter0_i_1023_2"
            x="0"
            y="0"
            width="128"
            height="128"
            filterUnits="userSpaceOnUse"
            color-interpolation-filters="sRGB"
        >
            <feFlood flood-opacity="0" result="BackgroundImageFix" />
            <feBlend
                mode="normal"
                in="SourceGraphic"
                in2="BackgroundImageFix"
                result="shape"
            />
            <feColorMatrix
                in="SourceAlpha"
                type="matrix"
                values="0 0 0 0 0 0 0 0 0 0 0 0 0 0 0 0 0 0 127 0"
                result="hardAlpha"
            />
            <feMorphology
                radius="8"
                operator="erode"
                in="SourceAlpha"
                result="effect1_innerShadow_1023_2"
            />
            <feOffset />
            <feGaussianBlur stdDeviation="3" />
            <feComposite in2="hardAlpha" operator="arithmetic" k2="-1" k3="1" />
            <feColorMatrix
                type="matrix"
                values="0 0 0 0 0.407843 0 0 0 0 0.105882 0 0 0 0 0.203922 0 0 0 0.5 0"
            />
            <feBlend
                mode="normal"
                in2="shape"
                result="effect1_innerShadow_1023_2"
            />
        </filter>
        <filter
            id="filter1_d_1023_2"
            x="23.8369"
            y="18.4998"
            width="81.8486"
            height="89.203"
            filterUnits="userSpaceOnUse"
            color-interpolation-filters="sRGB"
        >
            <feFlood flood-opacity="0" result="BackgroundImageFix" />
            <feColorMatrix
                in="SourceAlpha"
                type="matrix"
                values="0 0 0 0 0 0 0 0 0 0 0 0 0 0 0 0 0 0 127 0"
                result="hardAlpha"
            />
            <feOffset />
            <feGaussianBlur stdDeviation="2.5" />
            <feComposite in2="hardAlpha" operator="out" />
            <feColorMatrix
                type="matrix"
                values="0 0 0 0 0 0 0 0 0 0 0 0 0 0 0 0 0 0 0.25 0"
            />
            <feBlend
                mode="normal"
                in2="BackgroundImageFix"
                result="effect1_dropShadow_1023_2"
            />
            <feBlend
                mode="normal"
                in="SourceGraphic"
                in2="effect1_dropShadow_1023_2"
                result="shape"
            />
        </filter>
        <clipPath id="clip0_1023_2">
            <rect width="128" height="128" rx="40" fill="white" />
        </clipPath>
    </defs>
</svg>
